<svg xmlns="http://www.w3.org/2000/svg" version="1.1" xmlns:xlink="http://www.w3.org/1999/xlink" xmlns:svgjs="http://svgjs.dev/svgjs" width="2000" height="1200" preserveAspectRatio="none" viewBox="0 0 2000 1200"><g mask="url(&quot;#SvgjsMask1064&quot;)" fill="none"><path d="M189.8 0C249.41 11.79 252.33 19.51 300 59.34C431.86 169.51 435.6 171.39 548.86 300C585.6 341.72 573.03 400 600 400C627.82 400 621.44 344.2 658.44 300C771.44 165.03 753.88 120.08 900 41.67C1024.66 -25.23 1052.83 29.52 1200 9.38C1205.07 8.69 1199.38 0.16 1204.48 0C1349.38 -4.53 1352.24 0 1500 0C1650 0 1650 0 1800 0C1950 0 2011.27 -61.27 2100 0C2161.27 42.3 2133.49 119.55 2100 207.14C2076.14 269.55 1985.29 261.61 1985.29 300C1985.29 332.42 2080.98 299.01 2100 348.75C2138.34 449.01 2100 474.38 2100 600C2100 750 2100 750 2100 900C2100 1050 2169.05 1119.05 2100 1200C2041.11 1269.05 1945.28 1238.91 1844.12 1200C1795.28 1181.22 1834.36 1084.62 1800 1084.62C1754.61 1084.62 1754.99 1172.93 1684.62 1200C1604.99 1230.62 1592.31 1200 1500 1200C1350 1200 1350 1200 1200 1200C1072.94 1200 1061.51 1223.13 945.88 1200C911.51 1193.13 933.01 1140 900 1140C801.74 1140 792.77 1178.11 683.33 1200C642.77 1208.11 641.66 1200 600 1200C450 1200 450 1200 300 1200C216 1200 169.24 1253.53 132 1200C64.89 1103.53 137.08 1037.93 91.3 900C71.08 839.09 18.16 862.01 0 802.33C-27.49 712.01 0 701.16 0 600C0 450 0 450 0 300C0 150 -58.13 91.87 0 0C36.77 -58.13 99.41 -17.88 189.8 0" stroke="rgba(255, 255, 255, 0.58)" stroke-width="2"></path><path d="M300 577.22C274.35 577.22 248.57 584.36 248.57 600C248.57 619.44 274.45 647.37 300 647.37C325.17 647.37 350 619.51 350 600C350 584.44 325.06 577.22 300 577.22" stroke="rgba(255, 255, 255, 0.58)" stroke-width="2"></path><path d="M900 541.56C853.47 541.56 800 569.22 800 600C800 632.02 854.11 667.16 900 667.16C934.51 667.16 960.81 632.52 960.81 600C960.81 569.72 933.88 541.56 900 541.56" stroke="rgba(255, 255, 255, 0.58)" stroke-width="2"></path><path d="M1800 453.66C1733.61 453.66 1637.84 519.15 1637.84 600C1637.84 699.47 1737.11 814.29 1800 814.29C1852.68 814.29 1868.97 704.92 1868.97 600C1868.97 524.6 1849.17 453.66 1800 453.66" stroke="rgba(255, 255, 255, 0.58)" stroke-width="2"></path><path d="M600 809.3C560.72 809.3 513.33 846.27 513.33 900C513.33 999.95 562.65 1116.67 600 1116.67C635.98 1116.67 660 1003.58 660 900C660 849.9 634.05 809.3 600 809.3" stroke="rgba(255, 255, 255, 0.58)" stroke-width="2"></path><path d="M1200 824.05C1154.48 824.05 1116.67 863.59 1116.67 900C1116.67 934.17 1155.2 965.22 1200 965.22C1260.69 965.22 1327.66 934.67 1327.66 900C1327.66 864.08 1259.97 824.05 1200 824.05" stroke="rgba(255, 255, 255, 0.58)" stroke-width="2"></path><path d="M6.12 300C6.12 278.51 0.44 278.76 0 257.14C-2.62 128.76 -16.07 112.5 0 0C2.3 -16.07 20.32 -7.75 36.73 0C170.32 63.13 178.81 56.6 300 141.76C392.26 206.6 463.64 217.99 463.64 300C463.64 388.25 398.19 413.67 300 482.28C183.51 563.67 164.48 536.8 34.29 600C14.48 609.61 10.51 627.91 0 627.91C-6.63 627.91 0 613.95 0 600C0 480 -2.45 479.88 0 360C0.61 329.88 6.12 329.94 6.12 300" stroke="rgba(255, 255, 255, 0.58)" stroke-width="2"></path><path d="M755.84 300C755.84 224.12 810.99 157.1 900 145.83C1033.07 128.98 1087.82 283.04 1200 243.75C1296.03 210.12 1227.11 72.56 1316.42 0C1377.11 -49.31 1408.21 0 1500 0C1650 0 1650 0 1800 0C1950 0 1963.04 -13.04 2100 0C2113.04 1.24 2111 20.16 2100 28.57C1961 134.86 1935.67 117.34 1800 229.41C1771.38 253.05 1797.17 272.67 1771.43 300C1647.17 431.88 1635.72 423.92 1500 547.83C1471.43 573.92 1475.79 580.1 1442.86 600C1325.79 670.74 1312.86 729.11 1200 729.11C1122.51 729.11 1130.63 665.03 1062.16 600C980.63 522.56 980.34 522.84 900 444.16C827.18 372.84 755.84 373.29 755.84 300" stroke="rgba(255, 255, 255, 0.58)" stroke-width="2"></path><path d="M558.33 600C558.33 583.1 580.09 566.67 600 566.67C617.59 566.67 633.33 583.15 633.33 600C633.33 617.25 617.64 634.88 600 634.88C580.14 634.88 558.33 617.21 558.33 600" stroke="rgba(255, 255, 255, 0.58)" stroke-width="2"></path><path d="M1955.17 600C1955.17 511.22 2058.29 442.5 2100 442.5C2130.7 442.5 2100 521.25 2100 600C2100 743.18 2134.15 886.36 2100 886.36C2061.73 886.36 1955.17 733.15 1955.17 600" stroke="rgba(255, 255, 255, 0.58)" stroke-width="2"></path><path d="M254.35 900C254.35 868.72 277.02 844.74 300 844.74C323.18 844.74 346.67 868.59 346.67 900C346.67 954.56 323.11 1016.67 300 1016.67C276.95 1016.67 254.35 954.68 254.35 900" stroke="rgba(255, 255, 255, 0.58)" stroke-width="2"></path><path d="M775.38 900C775.38 839.08 839.24 779.1 900 779.1C957.8 779.1 1012.5 839.13 1012.5 900C1012.5 961.89 957.84 1024.62 900 1024.62C839.28 1024.62 775.38 961.84 775.38 900" stroke="rgba(255, 255, 255, 0.58)" stroke-width="2"></path><path d="M1487.23 900C1487.23 870.56 1489.47 840 1500 840C1511.64 840 1531.58 872.39 1531.58 900C1531.58 918.18 1512.58 931.58 1500 931.58C1490.4 931.58 1487.23 916.35 1487.23 900" stroke="rgba(255, 255, 255, 0.58)" stroke-width="2"></path><path d="M1034.12 1200C1034.12 1155.82 1111.76 1046.74 1200 1046.74C1304.86 1046.74 1420.31 1157.92 1420.31 1200C1420.31 1234.55 1310.15 1200 1200 1200C1117.06 1200 1034.12 1232.45 1034.12 1200" stroke="rgba(255, 255, 255, 0.58)" stroke-width="2"></path><path d="M2064.71 1200C2064.71 1114.8 2091.11 1000 2100 1000C2108.75 1000 2115 1115 2100 1200C2097.35 1215 2064.71 1214.8 2064.71 1200" stroke="rgba(255, 255, 255, 0.58)" stroke-width="2"></path><path d="M159.18 300C159.18 259.93 234.83 224.18 300 224.18C344.44 224.18 378.41 260.71 378.41 300C378.41 342.29 345.45 387.34 300 387.34C235.83 387.34 159.18 341.51 159.18 300" stroke="rgba(255, 255, 255, 0.58)" stroke-width="2"></path><path d="M853.25 300C853.25 275.39 871.4 250 900 250C952.84 250 1016.13 275.69 1016.13 300C1016.13 324.07 953.29 346.75 900 346.75C871.85 346.75 853.25 323.77 853.25 300" stroke="rgba(255, 255, 255, 0.58)" stroke-width="2"></path><path d="M1378.13 300C1354.06 170.71 1379.04 121.41 1428.36 0C1439.98 -28.59 1464.18 0 1500 0C1585.72 0 1654.9 -53.4 1671.43 0C1701.33 96.6 1653.85 163.11 1592.86 300C1568.13 355.5 1549.23 384.78 1500 384.78C1441.87 384.78 1389.88 363.1 1378.13 300" stroke="rgba(255, 255, 255, 0.58)" stroke-width="2"></path><path d="M1163.51 600C1163.51 556.02 1176.28 503.57 1200 503.57C1226.67 503.57 1264.29 559.89 1264.29 600C1264.29 625.2 1229.88 634.18 1200 634.18C1179.49 634.18 1163.51 621.33 1163.51 600" stroke="rgba(255, 255, 255, 0.58)" stroke-width="2"></path><path d="M2041.38 600C2041.38 564.07 2083.12 536.25 2100 536.25C2112.43 536.25 2100 568.13 2100 600C2100 657.95 2113.82 715.91 2100 715.91C2084.51 715.91 2041.38 653.9 2041.38 600" stroke="rgba(255, 255, 255, 0.58)" stroke-width="2"></path><path d="M890.77 900C890.77 895.49 895.5 891.04 900 891.04C904.28 891.04 908.33 895.49 908.33 900C908.33 904.58 904.28 909.23 900 909.23C895.5 909.23 890.77 904.58 890.77 900" stroke="rgba(255, 255, 255, 0.58)" stroke-width="2"></path><path d="M1122.35 1200C1122.35 1179.32 1158.69 1128.26 1200 1128.26C1249.08 1128.26 1303.13 1180.3 1303.13 1200C1303.13 1216.17 1251.57 1200 1200 1200C1161.18 1200 1122.35 1215.19 1122.35 1200" stroke="rgba(255, 255, 255, 0.58)" stroke-width="2"></path></g><defs><mask id="SvgjsMask1064"><rect width="2000" height="1200" fill="#ffffff"></rect></mask></defs></svg>